<mxfile host="app.diagrams.net" modified="2023-03-16T06:49:11.622Z" agent="5.0 (Windows)" etag="ihqwgZ9w3MHHQFp1pdPG" version="21.0.6" type="github">
  <diagram name="Page-1" id="8QjU6a54pJ7ij9oEzcRO">
    <mxGraphModel dx="1434" dy="782" grid="1" gridSize="10" guides="1" tooltips="1" connect="1" arrows="1" fold="1" page="1" pageScale="1" pageWidth="850" pageHeight="1100" math="0" shadow="0">
      <root>
        <mxCell id="0" />
        <mxCell id="1" parent="0" />
        <mxCell id="zbB_85GZFWTeFrsfNbJD-1" value="Agranara" style="ellipse;whiteSpace=wrap;html=1;aspect=fixed;fillColor=#f8cecc;strokeColor=#b85450;" parent="1" vertex="1">
          <mxGeometry x="385" y="350" width="80" height="80" as="geometry" />
        </mxCell>
        <mxCell id="zbB_85GZFWTeFrsfNbJD-2" value="Lead Developer" style="ellipse;whiteSpace=wrap;html=1;aspect=fixed;fillColor=#ffe6cc;strokeColor=#d79b00;" parent="1" vertex="1">
          <mxGeometry x="330" y="490" width="80" height="80" as="geometry" />
        </mxCell>
        <mxCell id="zbB_85GZFWTeFrsfNbJD-6" value="" style="edgeStyle=orthogonalEdgeStyle;rounded=0;orthogonalLoop=1;jettySize=auto;html=1;" parent="1" source="zbB_85GZFWTeFrsfNbJD-3" target="zbB_85GZFWTeFrsfNbJD-1" edge="1">
          <mxGeometry relative="1" as="geometry" />
        </mxCell>
        <mxCell id="zbB_85GZFWTeFrsfNbJD-3" value="CTO" style="ellipse;whiteSpace=wrap;html=1;aspect=fixed;fillColor=#ffe6cc;strokeColor=#d79b00;" parent="1" vertex="1">
          <mxGeometry x="240" y="350" width="80" height="80" as="geometry" />
        </mxCell>
        <mxCell id="zbB_85GZFWTeFrsfNbJD-7" value="" style="edgeStyle=orthogonalEdgeStyle;rounded=0;orthogonalLoop=1;jettySize=auto;html=1;" parent="1" source="zbB_85GZFWTeFrsfNbJD-4" target="zbB_85GZFWTeFrsfNbJD-1" edge="1">
          <mxGeometry relative="1" as="geometry" />
        </mxCell>
        <mxCell id="zbB_85GZFWTeFrsfNbJD-4" value="Project Lead" style="ellipse;whiteSpace=wrap;html=1;aspect=fixed;fillColor=#ffe6cc;strokeColor=#d79b00;" parent="1" vertex="1">
          <mxGeometry x="520" y="350" width="80" height="80" as="geometry" />
        </mxCell>
        <mxCell id="zbB_85GZFWTeFrsfNbJD-8" value="" style="edgeStyle=orthogonalEdgeStyle;rounded=0;orthogonalLoop=1;jettySize=auto;html=1;" parent="1" source="zbB_85GZFWTeFrsfNbJD-5" target="zbB_85GZFWTeFrsfNbJD-1" edge="1">
          <mxGeometry relative="1" as="geometry" />
        </mxCell>
        <mxCell id="zbB_85GZFWTeFrsfNbJD-5" value="CEO" style="ellipse;whiteSpace=wrap;html=1;aspect=fixed;fillColor=#ffe6cc;strokeColor=#d79b00;" parent="1" vertex="1">
          <mxGeometry x="385" y="230" width="80" height="80" as="geometry" />
        </mxCell>
        <mxCell id="zbB_85GZFWTeFrsfNbJD-10" value="FE Developer" style="ellipse;whiteSpace=wrap;html=1;aspect=fixed;fillColor=#ffe6cc;strokeColor=#d79b00;" parent="1" vertex="1">
          <mxGeometry x="430" y="480" width="80" height="80" as="geometry" />
        </mxCell>
        <mxCell id="zbB_85GZFWTeFrsfNbJD-11" value="" style="endArrow=classic;html=1;rounded=0;exitX=0.375;exitY=0.025;exitDx=0;exitDy=0;exitPerimeter=0;" parent="1" source="zbB_85GZFWTeFrsfNbJD-10" target="zbB_85GZFWTeFrsfNbJD-1" edge="1">
          <mxGeometry width="50" height="50" relative="1" as="geometry">
            <mxPoint x="530" y="540" as="sourcePoint" />
            <mxPoint x="580" y="490" as="targetPoint" />
          </mxGeometry>
        </mxCell>
        <mxCell id="zbB_85GZFWTeFrsfNbJD-12" value="" style="endArrow=classic;html=1;rounded=0;" parent="1" source="zbB_85GZFWTeFrsfNbJD-2" edge="1">
          <mxGeometry width="50" height="50" relative="1" as="geometry">
            <mxPoint x="350" y="470" as="sourcePoint" />
            <mxPoint x="400" y="420" as="targetPoint" />
          </mxGeometry>
        </mxCell>
        <mxCell id="zbB_85GZFWTeFrsfNbJD-13" value="Office Administrator" style="ellipse;whiteSpace=wrap;html=1;aspect=fixed;fillColor=#ffe6cc;strokeColor=#d79b00;" parent="1" vertex="1">
          <mxGeometry x="480" y="270" width="80" height="80" as="geometry" />
        </mxCell>
        <mxCell id="zbB_85GZFWTeFrsfNbJD-14" value="Project Manager" style="ellipse;whiteSpace=wrap;html=1;aspect=fixed;fillColor=#ffe6cc;strokeColor=#d79b00;" parent="1" vertex="1">
          <mxGeometry x="505" y="440" width="80" height="80" as="geometry" />
        </mxCell>
        <mxCell id="zbB_85GZFWTeFrsfNbJD-15" value="BE Developer" style="ellipse;whiteSpace=wrap;html=1;aspect=fixed;fillColor=#ffe6cc;strokeColor=#d79b00;" parent="1" vertex="1">
          <mxGeometry x="250" y="440" width="80" height="80" as="geometry" />
        </mxCell>
        <mxCell id="zbB_85GZFWTeFrsfNbJD-16" value="QA Tester" style="ellipse;whiteSpace=wrap;html=1;aspect=fixed;fillColor=#ffe6cc;strokeColor=#d79b00;" parent="1" vertex="1">
          <mxGeometry x="290" y="270" width="80" height="80" as="geometry" />
        </mxCell>
        <mxCell id="zbB_85GZFWTeFrsfNbJD-17" style="edgeStyle=orthogonalEdgeStyle;rounded=0;orthogonalLoop=1;jettySize=auto;html=1;exitX=0.5;exitY=1;exitDx=0;exitDy=0;" parent="1" source="zbB_85GZFWTeFrsfNbJD-2" target="zbB_85GZFWTeFrsfNbJD-2" edge="1">
          <mxGeometry relative="1" as="geometry" />
        </mxCell>
        <mxCell id="zbB_85GZFWTeFrsfNbJD-18" value="" style="endArrow=classic;html=1;rounded=0;exitX=0.938;exitY=0.238;exitDx=0;exitDy=0;exitPerimeter=0;" parent="1" source="zbB_85GZFWTeFrsfNbJD-15" target="zbB_85GZFWTeFrsfNbJD-1" edge="1">
          <mxGeometry width="50" height="50" relative="1" as="geometry">
            <mxPoint x="310" y="470" as="sourcePoint" />
            <mxPoint x="360" y="420" as="targetPoint" />
          </mxGeometry>
        </mxCell>
        <mxCell id="zbB_85GZFWTeFrsfNbJD-19" value="" style="endArrow=classic;html=1;rounded=0;entryX=1;entryY=1;entryDx=0;entryDy=0;exitX=0;exitY=0.25;exitDx=0;exitDy=0;exitPerimeter=0;" parent="1" source="zbB_85GZFWTeFrsfNbJD-14" target="zbB_85GZFWTeFrsfNbJD-1" edge="1">
          <mxGeometry width="50" height="50" relative="1" as="geometry">
            <mxPoint x="520" y="460" as="sourcePoint" />
            <mxPoint x="570" y="410" as="targetPoint" />
          </mxGeometry>
        </mxCell>
        <mxCell id="zbB_85GZFWTeFrsfNbJD-20" value="" style="endArrow=classic;html=1;rounded=0;entryX=1;entryY=0;entryDx=0;entryDy=0;exitX=0;exitY=1;exitDx=0;exitDy=0;" parent="1" source="zbB_85GZFWTeFrsfNbJD-13" target="zbB_85GZFWTeFrsfNbJD-1" edge="1">
          <mxGeometry width="50" height="50" relative="1" as="geometry">
            <mxPoint x="500" y="340" as="sourcePoint" />
            <mxPoint x="550" y="290" as="targetPoint" />
          </mxGeometry>
        </mxCell>
        <mxCell id="zbB_85GZFWTeFrsfNbJD-21" value="" style="endArrow=classic;html=1;rounded=0;exitX=1;exitY=1;exitDx=0;exitDy=0;" parent="1" source="zbB_85GZFWTeFrsfNbJD-16" target="zbB_85GZFWTeFrsfNbJD-1" edge="1">
          <mxGeometry width="50" height="50" relative="1" as="geometry">
            <mxPoint x="400" y="420" as="sourcePoint" />
            <mxPoint x="450" y="370" as="targetPoint" />
          </mxGeometry>
        </mxCell>
        <mxCell id="8QkN4mcIdR7XCD-wgpoB-5" style="edgeStyle=orthogonalEdgeStyle;rounded=0;orthogonalLoop=1;jettySize=auto;html=1;exitX=0;exitY=0.5;exitDx=0;exitDy=0;entryX=0.963;entryY=0.238;entryDx=0;entryDy=0;entryPerimeter=0;" edge="1" parent="1" source="zbB_85GZFWTeFrsfNbJD-23" target="zbB_85GZFWTeFrsfNbJD-1">
          <mxGeometry relative="1" as="geometry">
            <Array as="points">
              <mxPoint x="630" y="340" />
              <mxPoint x="500" y="340" />
              <mxPoint x="500" y="369" />
            </Array>
          </mxGeometry>
        </mxCell>
        <mxCell id="zbB_85GZFWTeFrsfNbJD-23" value="Customer" style="rounded=0;whiteSpace=wrap;html=1;fillColor=#dae8fc;strokeColor=#6c8ebf;" parent="1" vertex="1">
          <mxGeometry x="630" y="360" width="120" height="60" as="geometry" />
        </mxCell>
        <mxCell id="zbB_85GZFWTeFrsfNbJD-27" value="Supplier" style="rounded=0;whiteSpace=wrap;html=1;fillColor=#dae8fc;strokeColor=#6c8ebf;" parent="1" vertex="1">
          <mxGeometry x="110" y="490" width="120" height="60" as="geometry" />
        </mxCell>
        <mxCell id="zbB_85GZFWTeFrsfNbJD-28" value="" style="endArrow=classic;html=1;rounded=0;exitX=0.5;exitY=0;exitDx=0;exitDy=0;" parent="1" source="zbB_85GZFWTeFrsfNbJD-27" target="zbB_85GZFWTeFrsfNbJD-1" edge="1">
          <mxGeometry width="50" height="50" relative="1" as="geometry">
            <mxPoint x="140" y="530" as="sourcePoint" />
            <mxPoint x="190" y="480" as="targetPoint" />
          </mxGeometry>
        </mxCell>
        <mxCell id="8QkN4mcIdR7XCD-wgpoB-6" style="edgeStyle=orthogonalEdgeStyle;rounded=0;orthogonalLoop=1;jettySize=auto;html=1;exitX=0.5;exitY=1;exitDx=0;exitDy=0;entryX=0.775;entryY=0.05;entryDx=0;entryDy=0;entryPerimeter=0;" edge="1" parent="1" source="zbB_85GZFWTeFrsfNbJD-34" target="zbB_85GZFWTeFrsfNbJD-1">
          <mxGeometry relative="1" as="geometry">
            <Array as="points">
              <mxPoint x="480" y="220" />
              <mxPoint x="480" y="285" />
              <mxPoint x="447" y="285" />
            </Array>
          </mxGeometry>
        </mxCell>
        <mxCell id="zbB_85GZFWTeFrsfNbJD-34" value="Regulator" style="rounded=0;whiteSpace=wrap;html=1;fillColor=#dae8fc;strokeColor=#6c8ebf;" parent="1" vertex="1">
          <mxGeometry x="360" y="160" width="120" height="60" as="geometry" />
        </mxCell>
        <mxCell id="zbB_85GZFWTeFrsfNbJD-37" value="" style="rounded=1;whiteSpace=wrap;html=1;fillColor=#dae8fc;strokeColor=#6c8ebf;" parent="1" vertex="1">
          <mxGeometry x="90" y="240" width="40" height="40" as="geometry" />
        </mxCell>
        <mxCell id="zbB_85GZFWTeFrsfNbJD-38" value="" style="rounded=1;whiteSpace=wrap;html=1;fillColor=#ffe6cc;strokeColor=#d79b00;" parent="1" vertex="1">
          <mxGeometry x="90" y="190" width="40" height="40" as="geometry" />
        </mxCell>
        <mxCell id="zbB_85GZFWTeFrsfNbJD-39" value="" style="rounded=1;whiteSpace=wrap;html=1;fillColor=#f8cecc;strokeColor=#b85450;" parent="1" vertex="1">
          <mxGeometry x="90" y="290" width="40" height="40" as="geometry" />
        </mxCell>
        <mxCell id="zbB_85GZFWTeFrsfNbJD-41" value="Stakeholder Internal" style="text;html=1;strokeColor=none;fillColor=none;align=center;verticalAlign=middle;whiteSpace=wrap;rounded=0;" parent="1" vertex="1">
          <mxGeometry x="140" y="200" width="60" height="30" as="geometry" />
        </mxCell>
        <mxCell id="zbB_85GZFWTeFrsfNbJD-42" value="Organisasi" style="text;html=1;strokeColor=none;fillColor=none;align=center;verticalAlign=middle;whiteSpace=wrap;rounded=0;" parent="1" vertex="1">
          <mxGeometry x="140" y="295" width="60" height="30" as="geometry" />
        </mxCell>
        <mxCell id="zbB_85GZFWTeFrsfNbJD-43" value="Stakeholder Eksternal" style="text;html=1;strokeColor=none;fillColor=none;align=center;verticalAlign=middle;whiteSpace=wrap;rounded=0;" parent="1" vertex="1">
          <mxGeometry x="140" y="245" width="60" height="30" as="geometry" />
        </mxCell>
        <mxCell id="zbB_85GZFWTeFrsfNbJD-44" value="LEGENDA" style="text;html=1;strokeColor=none;fillColor=none;align=center;verticalAlign=middle;whiteSpace=wrap;rounded=0;" parent="1" vertex="1">
          <mxGeometry x="90" y="340" width="60" height="30" as="geometry" />
        </mxCell>
        <mxCell id="zbB_85GZFWTeFrsfNbJD-46" value="Competitor" style="rounded=0;whiteSpace=wrap;html=1;fillColor=#dae8fc;strokeColor=#6c8ebf;" parent="1" vertex="1">
          <mxGeometry x="360" y="600" width="120" height="60" as="geometry" />
        </mxCell>
        <mxCell id="zbB_85GZFWTeFrsfNbJD-47" value="" style="endArrow=classic;html=1;rounded=0;exitX=0.433;exitY=-0.05;exitDx=0;exitDy=0;exitPerimeter=0;entryX=0.5;entryY=1;entryDx=0;entryDy=0;" parent="1" source="zbB_85GZFWTeFrsfNbJD-46" target="zbB_85GZFWTeFrsfNbJD-1" edge="1">
          <mxGeometry width="50" height="50" relative="1" as="geometry">
            <mxPoint x="620" y="560" as="sourcePoint" />
            <mxPoint x="670" y="510" as="targetPoint" />
          </mxGeometry>
        </mxCell>
        <mxCell id="8QkN4mcIdR7XCD-wgpoB-3" style="edgeStyle=orthogonalEdgeStyle;rounded=0;orthogonalLoop=1;jettySize=auto;html=1;exitX=0;exitY=0.5;exitDx=0;exitDy=0;entryX=0.938;entryY=0.75;entryDx=0;entryDy=0;entryPerimeter=0;" edge="1" parent="1" source="zbB_85GZFWTeFrsfNbJD-48" target="zbB_85GZFWTeFrsfNbJD-1">
          <mxGeometry relative="1" as="geometry">
            <Array as="points">
              <mxPoint x="600" y="520" />
              <mxPoint x="600" y="420" />
              <mxPoint x="460" y="420" />
            </Array>
          </mxGeometry>
        </mxCell>
        <mxCell id="zbB_85GZFWTeFrsfNbJD-48" value="Partner" style="rounded=0;whiteSpace=wrap;html=1;fillColor=#dae8fc;strokeColor=#6c8ebf;" parent="1" vertex="1">
          <mxGeometry x="630" y="490" width="120" height="60" as="geometry" />
        </mxCell>
      </root>
    </mxGraphModel>
  </diagram>
</mxfile>
